<svg width="6" height="11" viewBox="0 0 6 11" fill="none" xmlns="http://www.w3.org/2000/svg">
<path d="M4.53847 3.62987C4.33068 3.43506 4.12289 3.29221 3.92808 3.18831C3.73328 3.0974 3.5125 3.04545 3.26575 3.04545C2.98003 3.04545 2.77224 3.11039 2.62938 3.22727C2.48652 3.34416 2.4086 3.53896 2.4086 3.7987C2.4086 3.98052 2.48652 4.14935 2.64237 4.26623C2.79821 4.3961 2.98003 4.51299 3.2138 4.62987C3.44756 4.74675 3.69432 4.86364 3.95406 4.99351C4.2138 5.12338 4.46055 5.26623 4.69432 5.44805C4.92808 5.62987 5.1099 5.83766 5.26575 6.0974C5.42159 6.35714 5.49951 6.66883 5.49951 7.03247C5.49951 7.59091 5.34367 8.07143 5.04497 8.47403C4.74626 8.87662 4.27873 9.13636 3.68133 9.27922V10.5H2.55146V9.33117C2.2138 9.29221 1.85016 9.2013 1.47354 9.04545C1.09691 8.88961 0.772239 8.69481 0.499512 8.44805L1.25276 7.29221C1.55146 7.51299 1.83717 7.68182 2.09691 7.7987C2.36964 7.91558 2.64237 7.96753 2.9151 7.96753C3.23977 7.96753 3.48652 7.9026 3.62938 7.77273C3.78523 7.64286 3.86315 7.43506 3.86315 7.16234C3.86315 6.95455 3.78523 6.78571 3.62938 6.64286C3.47354 6.5 3.29172 6.37013 3.05795 6.24026C2.82419 6.11039 2.57743 5.98052 2.31769 5.85065C2.05795 5.72078 1.8112 5.56493 1.57743 5.38312C1.34367 5.2013 1.16185 4.99351 1.00601 4.74675C0.850161 4.5 0.772239 4.21429 0.772239 3.86364C0.772239 3.29221 0.928083 2.81169 1.23977 2.43506C1.55146 2.05844 1.99302 1.81169 2.53847 1.70779V0.5H3.66834V1.68182C4.04497 1.73377 4.36964 1.85065 4.65536 2.01948C4.94107 2.18831 5.18782 2.3961 5.42159 2.64286L4.53847 3.62987Z" fill="#333B41"/>
</svg>
